# xmcd CD database file
#
# Track frame offsets:
#	150
#	17242
#	30225
#	49280
#	69532
#	82120
#	106635
#	126792
#	147997
#	165077
#	185690
#
# Disc length: 2663 seconds
#
# Revision: 0
# Processed by: cddbd v1.4PL0 Copyright (c) Steve Scherf et al.
# Submitted via: CDex 1.40Release
#
DISCID=8b0a650b
DTITLE=Tony Mattioli - Stolen Bibles
DYEAR=1999
DGENRE=Blues
TTITLE0=SFF
TTITLE1=Lyin' to Myself
TTITLE2=Leave Your Light On
TTITLE3=I
TTITLE4=My Muse
TTITLE5=Confused
TTITLE6=It's Easier
TTITLE7=You're Gonna B Fine
TTITLE8=Jumped Up
TTITLE9=Whole Lotta Ladies
TTITLE10=Pony Blues
EXTD=YEAR: 1999 ID3G: 0
EXTT0=
EXTT1=
EXTT2=
EXTT3=
EXTT4=
EXTT5=
EXTT6=
EXTT7=
EXTT8=
EXTT9=
EXTT10=
PLAYORDER=
